<svg width="748" height="1669" viewBox="0 0 748 1669" fill="none" xmlns="http://www.w3.org/2000/svg">
<circle cx="374" cy="345" r="345" fill="black"/>
<circle cx="373.5" cy="974.5" r="102.5" fill="black"/>
<rect x="4" y="442.531" width="37.6123" height="318.25" transform="rotate(-30.0698 4 442.531)" fill="black"/>
<rect x="228.878" y="1141" width="37.6123" height="318.25" transform="rotate(11.0281 228.878 1141)" fill="black"/>
<rect x="245.07" y="944.721" width="37.6123" height="211.363" transform="rotate(4.23435 245.07 944.721)" fill="black"/>
<rect x="217.325" y="821.058" width="37.6123" height="200.903" transform="rotate(-11.7482 217.325 821.058)" fill="black"/>
<rect x="83.824" y="567.373" width="37.6123" height="318.25" transform="rotate(-27.9443 83.824 567.373)" fill="black"/>
<rect width="36.4316" height="318.658" transform="matrix(-0.850315 -0.526273 -0.476247 0.879312 735 443.173)" fill="black"/>
<rect width="38.1745" height="323.034" transform="matrix(-0.97898 0.203954 0.179356 0.983784 520.982 1153.77)" fill="black"/>
<rect width="39.0831" height="214.959" transform="matrix(-0.996883 0.0788989 0.0690948 0.99761 505.572 954.082)" fill="black"/>
<rect width="37.9186" height="203.861" transform="matrix(-0.976168 -0.217016 -0.190966 0.981597 531.977 828.271)" fill="black"/>
<rect width="35.9431" height="311.156" transform="matrix(-0.869877 -0.493269 -0.44451 0.895774 659.031 570.183)" fill="black"/>
<rect x="83" y="1352" width="584" height="317" fill="black"/>
<ellipse cx="92" cy="1632.5" rx="63" ry="36.5" fill="black"/>
<ellipse cx="656" cy="1632.5" rx="63" ry="36.5" fill="black"/>
<ellipse cx="139.5" cy="1351.5" rx="56.5" ry="23.5" fill="black"/>
<ellipse cx="610.5" cy="1351.5" rx="56.5" ry="23.5" fill="black"/>
<rect x="140" y="1328" width="470" height="72" fill="black"/>
<ellipse cx="40" cy="437.5" rx="40" ry="40.5" fill="black"/>
<ellipse cx="708" cy="437.5" rx="40" ry="40.5" fill="black"/>
</svg>
