<svg width="440" height="983" viewBox="0 0 440 983" fill="none" xmlns="http://www.w3.org/2000/svg">
<path d="M208.333 328.752C301.301 328.752 376.667 255.158 376.667 164.376C376.667 73.5936 301.301 0 208.333 0C115.365 0 40 73.5936 40 164.376C40 255.158 115.365 328.752 208.333 328.752Z" fill="black"/>
<path d="M390 763.29H40V914.646H390V763.29Z" fill="black"/>
<path d="M239.167 703.073L385.67 764.103H92.664L239.167 703.073Z" fill="black"/>
<path d="M355 681.916H70V818.624H355V681.916Z" fill="black"/>
<path d="M351.903 660.787L398.125 769.474L339.794 778.764L351.903 660.787Z" fill="black"/>
<path d="M73.8573 660.897L26.8368 769.241L85.0982 778.961L73.8573 660.897Z" fill="black"/>
<path d="M108.343 325.142L134.951 351.468L108.12 362.13L108.343 325.142Z" fill="black"/>
<path d="M124.714 316.542L163.756 380.439L138.673 389.689L124.714 316.542Z" fill="black"/>
<path d="M107.5 343.399H141.667V678.661H107.5V343.399Z" fill="black"/>
<path d="M160 369.439H126.667V693.308H160V369.439Z" fill="black"/>
<path d="M313.16 324.789L287.098 351.115L313.378 361.777L313.16 324.789Z" fill="black"/>
<path d="M297.125 316.189L258.885 380.086L283.453 389.336L297.125 316.189Z" fill="black"/>
<path d="M313.333 343.399H280V678.661H313.333V343.399Z" fill="black"/>
<path d="M263.333 369.439H295V693.308H263.333V369.439Z" fill="black"/>
<path d="M248.333 310.849H175V719.348H248.333V310.849Z" fill="black"/>
<path d="M185 403.616H160V642.856H185V403.616Z" fill="black"/>
<path d="M286.667 403.616H240V642.856H286.667V403.616Z" fill="black"/>
<path d="M420 939.058H8.33333V978.117H420V939.058Z" fill="black"/>
<path d="M390 872.331H40V958.588H390V872.331Z" fill="black"/>
<path d="M389.99 832.072L420.215 942.791L335.578 933.594L389.99 832.072Z" fill="black"/>
<path d="M47.7912 836.719L8.83363 940.275L65.3922 945.693L47.7912 836.719Z" fill="black"/>
<rect x="73.3333" y="660.224" width="278.667" height="73.3582" fill="black"/>
</svg>
